<svg width="160" height="160" viewBox="0 0 160 160" fill="none" xmlns="http://www.w3.org/2000/svg">
<path fill-rule="evenodd" clip-rule="evenodd" d="M60.6897 0H55.1724V5.51724H60.6897V0ZM88.2758 0H82.7586V5.51724H88.2758V0ZM88.2759 0H93.7931V5.51724H88.2759V0ZM104.828 0H99.3104V5.51724H104.828V0ZM44.1379 5.51724H49.6552H49.6552H55.1724V11.0345V16.5517V22.069V27.5862V33.1035H49.6552V38.6207V44.1379V49.6552H44.1379V44.1379V38.6207V33.1035H49.6552V27.5862V22.069H44.1379V16.5517V11.0345V5.51724ZM60.6896 5.51724H66.2069V11.0345L60.6897 11.0345V16.5517H66.2069V22.069H60.6896V16.5517H55.1724V11.0345L60.6896 11.0345V5.51724ZM71.7242 5.51724H66.2069V11.0345V16.5517H71.7242H77.2414V11.0345V5.51724H71.7242ZM82.7586 5.51724H77.2414V11.0345H82.7586L82.7586 16.5517H88.2758V11.0345L82.7586 11.0345V5.51724ZM99.3103 5.51724H93.7931V11.0345H99.3103V5.51724ZM110.345 5.51724H115.862V11.0345V16.5517V22.069V27.5862V33.1035V38.6207V44.1379H110.345V38.6207V33.1035V27.5862V22.069V16.5517V11.0345V5.51724ZM115.862 44.1379H121.379V49.6552H115.862L115.862 44.1379ZM104.828 11.0345H99.3104V16.5517H104.828V11.0345ZM88.2759 16.5517H93.7931H99.3103V22.069H93.7931V27.5862H88.2759V22.069V16.5517ZM82.7586 22.069H88.2758V27.5862V33.1035H82.7586V27.5862V22.069ZM82.7586 33.1035L82.7586 38.6207H88.2758V44.1379H82.7586H77.2414V38.6207V33.1035H82.7586ZM104.828 22.069H110.345V27.5862H104.828V22.069ZM71.7242 27.5862H66.2069V33.1035V38.6207H71.7242V33.1035V27.5862ZM60.6897 33.1035H55.1724V38.6207H60.6896V44.1379H55.1724V49.6552H60.6897V44.1379H66.2069V38.6207H60.6897V33.1035ZM88.2759 33.1035H93.7931V38.6207V44.1379H99.3103V49.6552V55.1724V60.6897H93.7931H88.2759V55.1724V49.6552V44.1379V38.6207V33.1035ZM104.828 33.1035H99.3104V38.6207V44.1379H104.828L104.828 49.6552H99.3104V55.1724H104.828H110.345V49.6552V44.1379H104.828V38.6207V33.1035ZM0 44.1379H5.51724V49.6552V55.1724H0V49.6552V44.1379ZM5.51721 60.6897L5.51724 55.1724L11.0345 55.1724V60.6897H5.51721ZM5.51724 66.2069H0V60.6897H5.51721L5.51724 66.2069ZM5.51724 66.2069H11.0345V71.7241H5.51721L5.51724 66.2069ZM38.6207 44.1379H33.1035V49.6552H38.6207V44.1379ZM121.379 44.1379H126.897V49.6552H121.379V44.1379ZM126.897 49.6552H132.414V55.1724H126.897L126.897 49.6552ZM143.448 44.1379H137.931V49.6552H132.414V55.1724H137.931L137.931 49.6552H143.448L143.448 55.1724H148.965V49.6552V44.1379H143.448ZM154.483 44.1379H148.966V49.6552V55.1724H154.483V49.6552V44.1379ZM16.5517 49.6552H11.0345V55.1724V60.6897V66.2069H16.5517V60.6897H22.0689V55.1724L16.5517 55.1724V49.6552ZM27.5862 49.6552H33.1034V55.1724H27.5862V49.6552ZM27.5862 60.6897H22.069V55.1724L27.5862 55.1724L27.5862 60.6897ZM27.5862 71.7241V66.2069L27.5862 60.6897H33.1034V66.2069V71.7241H27.5862ZM27.5862 71.7241L27.5862 77.2414V82.7586H22.069V77.2414V71.7241H27.5862ZM77.2414 49.6552H71.7241V55.1724L66.2069 55.1724V60.6897V66.2069H71.7242L71.7241 71.7241H77.2414V66.2069V60.6897V55.1724V49.6552ZM33.1035 55.1724H38.6207H38.6207H44.1379V60.6897V66.2069H38.6207V60.6897H33.1035V55.1724ZM38.6207 71.7241H33.1035V66.2069H38.6207L38.6207 71.7241ZM38.6207 77.2414L38.6207 71.7241H44.1379V77.2414H38.6207ZM38.6207 77.2414L38.6207 82.7586H33.1035V77.2414H38.6207ZM44.1379 55.1724H49.6552H49.6552H55.1724V60.6897V66.2069H49.6552V71.7241H44.1379V66.2069V60.6897V55.1724ZM49.6552 71.7241H55.1724V77.2414V82.7586V88.2759H49.6552H44.1379V82.7586V77.2414H49.6552L49.6552 71.7241ZM77.2414 55.1724H82.7586H88.2758V60.6897H82.7586H77.2414V55.1724ZM55.1724 60.6897H60.6897V66.2069V71.7241V77.2414H55.1724V71.7241V66.2069V60.6897ZM115.862 60.6897H110.345V66.2069V71.7241V77.2414H115.862L115.862 82.7586H121.379V77.2414V71.7241H115.862V66.2069V60.6897ZM121.379 60.6897H126.897H132.414V66.2069V71.7241H126.897V77.2414H121.379V71.7241V66.2069V60.6897ZM126.897 77.2414H132.414V82.7586V88.2759V93.7931V99.3103H126.897H121.379V93.7931H126.897V88.2759V82.7586L126.897 77.2414ZM137.931 60.6897H143.448V66.2069H137.931V60.6897ZM88.2758 66.2069H82.7586V71.7241H88.2758V66.2069ZM88.2759 66.2069H93.7931V71.7241V77.2414H88.2759V71.7241V66.2069ZM93.7931 77.2414H99.3103V82.7586H93.7931L93.7931 77.2414ZM110.345 66.2069H104.828V71.7241V77.2414H99.3104V82.7586V88.2759V93.7931V99.3103H104.828L104.828 104.828L99.3104 104.828V110.345H104.828L104.828 104.828H110.345V99.3103V93.7931V88.2759V82.7586H104.828L104.828 77.2414H110.345V71.7241V66.2069ZM160 66.2069H154.483V71.7241V77.2414H160V71.7241V66.2069ZM11.0345 71.7241H16.5517V77.2414H11.0345V71.7241ZM132.414 71.7241H137.931V77.2414H132.414V71.7241ZM143.448 99.3103H148.965V93.7931V88.2759V82.7586V77.2414H143.448H137.931L137.931 82.7586H132.414V88.2759H137.931L137.931 93.7931H132.414V99.3103H137.931L137.931 104.828L132.414 104.828V110.345V115.862V121.379V126.897V132.414V137.931H137.931L137.931 143.448H132.414V148.966H137.931L137.931 154.483H132.414V160H137.931H143.448H148.965V154.483V148.966V143.448V137.931H143.448V132.414H137.931V126.897H143.448H148.965V121.379H143.448L143.448 115.862H148.965V110.345H143.448V115.862H137.931V110.345L137.931 104.828H143.448L143.448 99.3103ZM143.448 99.3103L143.448 93.7931H137.931L137.931 99.3103H143.448ZM137.931 88.2759L137.931 82.7586H143.448L143.448 88.2759H137.931ZM154.483 71.7241H148.966V77.2414H154.483V71.7241ZM5.51724 77.2414H0V82.7586H5.51724H11.0345V77.2414H5.51724ZM60.6897 82.7586H55.1724V88.2759H60.6897L60.6896 93.7931V99.3103V104.828L55.1724 104.828V110.345H60.6897L60.6896 115.862H55.1724V121.379H60.6897L60.6896 115.862H66.2069V110.345H60.6897L60.6896 104.828H66.2069V99.3103V93.7931V88.2759H60.6897V82.7586ZM82.7586 82.7586H88.2758V88.2759H82.7586V82.7586ZM154.483 82.7586H160V88.2759H154.483V82.7586ZM5.51724 88.2759H0V93.7931V99.3103V104.828V110.345V115.862H5.51724V110.345V104.828H11.0345V99.3103H5.51724V93.7931V88.2759ZM22.069 88.2759H27.5862H33.1034V93.7931H27.5862H22.069V88.2759ZM33.1035 88.2759H38.6207V93.7931H33.1035V88.2759ZM38.6207 99.3103L38.6207 93.7931H44.1379V99.3103H38.6207ZM38.6207 99.3103L38.6207 104.828H33.1035V99.3103H38.6207ZM88.2759 88.2759H93.7931H99.3103V93.7931V99.3103H93.7931L93.7931 93.7931H88.2759V88.2759ZM49.6552 93.7931H44.1379V99.3103V104.828H49.6552L49.6552 110.345V115.862H44.1379V121.379H49.6552H55.1724V115.862V110.345V104.828V99.3103V93.7931H49.6552ZM71.7241 93.7931H77.2414V99.3103H71.7241V93.7931ZM82.7586 93.7931H77.2414V99.3103H82.7586L82.7586 104.828H88.2758V99.3103H82.7586V93.7931ZM115.862 93.7931H110.345V99.3103H115.862V93.7931ZM148.966 93.7931H154.483V99.3103H148.966V93.7931ZM160 93.7931H154.483V99.3103V104.828H160V99.3103V93.7931ZM16.5517 99.3103H22.0689V104.828V110.345H16.5517H11.0345V104.828L16.5517 104.828V99.3103ZM27.5862 99.3103H22.069V104.828H27.5862L27.5862 110.345H22.069V115.862H27.5862L27.5862 110.345H33.1034V104.828V99.3103H27.5862ZM71.7242 104.828H66.2069V110.345H71.7242H77.2414V104.828H71.7242ZM110.345 104.828H115.862H121.379V110.345V115.862H115.862V121.379V126.897V132.414H121.379V137.931V143.448V148.966V154.483V160H115.862V154.483V148.966V143.448L115.862 137.931H110.345V132.414V126.897V121.379V115.862V110.345V104.828ZM121.379 104.828H126.897H132.414V110.345V115.862H126.897H121.379V110.345V104.828ZM38.6207 110.345H33.1035V115.862H38.6207H44.1379V110.345H38.6207ZM82.7586 110.345H77.2414V115.862V121.379H82.7586V115.862H88.2758V110.345H82.7586ZM99.3103 110.345H93.7931V115.862V121.379H99.3103V115.862V110.345ZM148.966 110.345H154.483V115.862H148.966V110.345ZM160 110.345H154.483V115.862H160V110.345ZM104.828 115.862H99.3104V121.379V126.897H104.828L104.828 132.414V137.931H99.3104V143.448H104.828L104.828 148.966V154.483H99.3104V160H104.828H110.345V154.483V148.966V143.448H104.828L104.828 137.931H110.345V132.414V126.897V121.379H104.828V115.862ZM71.7242 121.379H66.2069V126.897H71.7242V121.379ZM126.897 121.379H121.379V126.897H126.897V121.379ZM60.6897 126.897H55.1724V132.414H60.6897H66.2069V126.897H60.6897ZM82.7586 126.897H77.2414V132.414V137.931V143.448H82.7586L82.7586 148.966V154.483H77.2414V160H82.7586L82.7586 154.483H88.2758V148.966V143.448H82.7586V137.931V132.414H88.2758V126.897H82.7586ZM93.7931 126.897H88.2759V132.414V137.931H93.7931L93.7931 143.448H88.2759V148.966H93.7931H99.3103V143.448V137.931H93.7931V132.414V126.897ZM160 126.897H154.483V132.414H160V126.897ZM66.2069 132.414H71.7242H77.2414V137.931V143.448H71.7241L71.7242 137.931H66.2069V132.414ZM126.897 132.414H121.379V137.931H126.897L126.897 143.448H121.379V148.966H126.897L126.897 154.483H121.379V160H126.897H132.414V154.483V148.966V143.448V137.931V132.414H126.897ZM55.1724 137.931H49.6552V143.448V148.966H55.1724V143.448V137.931ZM55.1724 137.931H60.6897H66.2069V143.448H60.6897V148.966H55.1724V143.448V137.931ZM148.966 137.931H154.483V143.448V148.966H148.966V143.448V137.931ZM66.2069 148.966H71.7242V154.483H66.2069V148.966ZM71.7242 154.483H77.2414V160H71.7241L71.7242 154.483ZM160 148.966H154.483V154.483H160V148.966ZM44.1379 154.483H49.6552H55.1724V160H49.6552H44.1379V154.483ZM60.6896 154.483H66.2069V160H60.6896V154.483ZM99.3103 154.483H93.7931V160H99.3103V154.483Z" fill="white"/>
<path fill-rule="evenodd" clip-rule="evenodd" d="M5.7931 0H32.8276H38.6207V5.7931V32.8276V38.6207H32.8276H5.7931H0V32.8276V5.7931V0H5.7931ZM5.7931 32.8276H32.8276V5.7931H5.7931V32.8276Z" fill="white"/>
<path fill-rule="evenodd" clip-rule="evenodd" d="M127.172 0H154.207H160V5.7931V32.8276V38.6207H154.207H127.172H121.379V32.8276V5.7931V0H127.172ZM127.172 32.8276H154.207V5.7931H127.172V32.8276Z" fill="white"/>
<path fill-rule="evenodd" clip-rule="evenodd" d="M5.7931 121.379H32.8276H38.6207V127.172V154.207V160H32.8276H5.7931H0V154.207V127.172V121.379H5.7931ZM5.7931 154.207H32.8276V127.172H5.7931V154.207Z" fill="white"/>
<rect x="11.0345" y="11.0345" width="16.5517" height="16.5517" fill="white"/>
<rect x="132.414" y="11.0345" width="16.5517" height="16.5517" fill="white"/>
<rect x="11.0345" y="132.414" width="16.5517" height="16.5517" fill="white"/>
</svg>
